<svg width="50" height="40" viewBox="0 0 50 40" fill="none" xmlns="http://www.w3.org/2000/svg">
<path d="M11.3642 15.9519C10.8084 15.9519 10.275 16.0427 9.74407 16.1256C9.91605 15.5057 10.093 14.8751 10.3772 14.3086C10.6613 13.4856 11.105 12.7722 11.5462 12.0534C11.9151 11.2759 12.5657 10.7495 13.0442 10.0842C13.5453 9.43754 14.2282 9.00735 14.7691 8.47027C15.3 7.90915 15.9955 7.62859 16.5488 7.23313C17.1271 6.87775 17.6306 6.48497 18.169 6.29793L19.5125 5.70474L20.694 5.17836L19.4851 0L17.997 0.384768C17.5209 0.513025 16.9401 0.662657 16.2796 0.841682C15.6041 0.975283 14.8838 1.34135 14.0812 1.67535C13.2885 2.05478 12.3712 2.31129 11.5188 2.92051C10.6613 3.50301 9.67178 3.98931 8.79938 4.76954C7.95439 5.57381 6.93493 6.27121 6.18217 7.29459C5.35962 8.25117 4.54703 9.25584 3.91641 10.3995C3.18609 11.4896 2.69006 12.6867 2.16662 13.8704C1.69303 15.0541 1.31166 16.2645 1.00009 17.4402C0.40935 19.7969 0.145136 22.0361 0.0429403 23.9519C-0.0418074 25.8704 0.00804419 27.4656 0.112733 28.6199C0.150121 29.165 0.219914 29.6941 0.269765 30.0601L0.33208 30.509L0.396887 30.493C0.84022 32.713 1.86079 34.753 3.34053 36.3772C4.82028 38.0014 6.69873 39.1433 8.7586 39.6709C10.8185 40.1984 12.9756 40.09 14.9804 39.3583C16.9852 38.6265 18.7558 37.3013 20.0873 35.5358C21.4188 33.7704 22.2569 31.6369 22.5046 29.3822C22.7523 27.1275 22.3995 24.8437 21.4869 22.795C20.5744 20.7463 19.1394 19.0163 17.3481 17.8053C15.5567 16.5943 13.4821 15.9518 11.3642 15.9519ZM38.7826 15.9519C38.2268 15.9519 37.6934 16.0427 37.1625 16.1256C37.3344 15.5057 37.5114 14.8751 37.7956 14.3086C38.0797 13.4856 38.5234 12.7722 38.9646 12.0534C39.3335 11.2759 39.9841 10.7495 40.4626 10.0842C40.9636 9.43754 41.6466 9.00735 42.1875 8.47027C42.7184 7.90915 43.4138 7.62859 43.9672 7.23313C44.5455 6.87775 45.049 6.48497 45.5874 6.29793L46.9309 5.70474L48.1124 5.17836L46.9035 0L45.4154 0.384768C44.9393 0.513025 44.3585 0.662657 43.698 0.841682C43.0225 0.975283 42.3022 1.34135 41.4995 1.67535C40.7094 2.05745 39.7896 2.31129 38.9372 2.92318C38.0797 3.50568 37.0902 3.99198 36.2178 4.77221C35.3728 5.57649 34.3533 6.27388 33.6006 7.29459C32.778 8.25117 31.9654 9.25584 31.3348 10.3995C30.6045 11.4896 30.1085 12.6867 29.585 13.8704C29.1114 15.0541 28.7301 16.2645 28.4185 17.4402C27.8277 19.7969 27.5635 22.0361 27.4613 23.9519C27.3766 25.8704 27.4264 27.4656 27.5311 28.6199C27.5685 29.165 27.6383 29.6941 27.6882 30.0601L27.7505 30.509L27.8153 30.493C28.2586 32.713 29.2792 34.753 30.7589 36.3772C32.2387 38.0014 34.1171 39.1433 36.177 39.6709C38.2369 40.1984 40.394 40.09 42.3988 39.3583C44.4036 38.6265 46.1741 37.3013 47.5057 35.5358C48.8372 33.7704 49.6753 31.6369 49.923 29.3822C50.1707 27.1275 49.8179 24.8437 48.9053 22.795C47.9928 20.7463 46.5578 19.0163 44.7665 17.8053C42.9751 16.5943 40.9005 15.9518 38.7826 15.9519Z" fill="url(#paint0_linear_2455_401)"/>
<defs>
<linearGradient id="paint0_linear_2455_401" x1="0" y1="0" x2="6.48623" y2="43.3499" gradientUnits="userSpaceOnUse">
<stop stop-color="#1D5AB6"/>
<stop offset="1" stop-color="#5A9CFF"/>
</linearGradient>
</defs>
</svg>
